<?xml version="1.0" encoding="UTF-8"?>
<svg version="1.1" xmlns="http://www.w3.org/2000/svg" width="512" height="512">
<path d="M0 0 C5.00729818 3.45742017 8.85734969 8.11599422 12.75 12.75 C13.22518066 13.31356201 13.70036133 13.87712402 14.18994141 14.45776367 C18.01141771 19.0189821 21.70236767 23.67426506 25.35791016 28.36889648 C28.88904585 32.89834091 32.49241317 37.36411811 36.125 41.8125 C39.77161751 46.27902886 43.39517904 50.75906328 46.93920898 55.30761719 C47.84917771 56.47043589 48.76660536 57.62745884 49.69165039 58.77832031 C51.90168918 61.53499634 53.9565082 64.28260175 55.828125 67.28125 C59.72659933 73.1462566 59.72659933 73.1462566 65.75537109 76.43505859 C69.99176131 77.12737006 74.2243097 77.30227122 78.5078125 77.48046875 C93.86555504 78.17854796 109.22843009 85.81923907 120.625 95.8125 C121.3365625 96.41835937 122.048125 97.02421875 122.78125 97.6484375 C129.92688292 104.1808258 134.24251402 112.44799492 134.75390625 122.2109375 C134.29901471 131.39147594 131.31645683 138.69817896 125.625 145.8125 C125.0371875 146.56273437 124.449375 147.31296875 123.84375 148.0859375 C112.07838153 162.21402341 93.71110206 171.85466873 75.625 174.8125 C69.69708063 175.31367342 63.58694789 175.48156367 57.76733398 174.16699219 C54.09069506 173.75222413 52.34977579 174.3815627 49.0078125 175.90234375 C47.98945313 176.35673828 46.97109375 176.81113281 45.921875 177.27929688 C44.35179687 178.00729492 44.35179687 178.00729492 42.75 178.75 C41.14511719 179.47219727 41.14511719 179.47219727 39.5078125 180.20898438 C36.87372396 181.39667608 34.2468515 182.59809191 31.625 183.8125 C34.87590936 186.43137071 38.29074295 188.28651375 42.0078125 190.17578125 C42.92927567 190.64747993 42.92927567 190.64747993 43.86935425 191.12870789 C45.82776912 192.13104633 47.78856684 193.12858229 49.75 194.125 C77.06692366 208.00574526 77.06692366 208.00574526 82.0625 217.5625 C83.2233439 224.26959811 82.98944057 230.54317993 79 236.25 C74.27504377 241.66424397 70.05918674 244.01358079 62.9375 244.6875 C52.80457122 244.34048189 44.26773593 238.62107324 35.625 233.8125 C33.93055643 232.88642916 32.23524801 231.96193894 30.5390625 231.0390625 C27.90584932 229.60432118 25.27456892 228.16657359 22.64892578 226.71801758 C12.85830224 221.33257482 2.91668661 216.24405212 -7.03051758 211.15576172 C-7.67913757 210.82329941 -8.32775757 210.4908371 -8.99603271 210.14830017 C-10.76678649 209.24103927 -12.53874857 208.3361378 -14.31079102 207.43139648 C-17.375 205.8125 -17.375 205.8125 -19.90600586 204.03930664 C-23.23208031 202.38662948 -24.82914747 202.81373486 -28.375 203.8125 C-30.68190068 204.75172827 -32.95650323 205.77218838 -35.203125 206.84765625 C-35.85706238 207.15826492 -36.51099976 207.4688736 -37.18475342 207.78889465 C-38.59671216 208.46059283 -40.00708696 209.13562874 -41.41601562 209.81365967 C-43.65846706 210.89107976 -45.90649772 211.95598383 -48.15625 213.01806641 C-55.23010699 216.36411128 -62.2809235 219.75023384 -69.28533936 223.23954773 C-72.26056448 224.71790612 -75.24559139 226.17580954 -78.23181152 227.63180542 C-79.63475491 228.32286911 -81.03289152 229.0237994 -82.42541504 229.73562622 C-92.01836034 234.63639546 -100.67617743 236.95650691 -111.43414307 237.62683105 C-114.88491353 237.84469303 -118.33122021 238.1066674 -121.77880859 238.37011719 C-127.42529925 238.79796229 -133.0725372 239.21401639 -138.72070312 239.61914062 C-139.44435499 239.67115757 -140.16800686 239.72317451 -140.91358757 239.77676773 C-144.63027405 240.0430706 -148.3472197 240.30478429 -152.06469727 240.55981445 C-155.71725971 240.81083269 -159.36878183 241.07394959 -163.01992226 241.34483528 C-164.39540211 241.44459473 -165.77121297 241.53990382 -167.14732933 241.63046074 C-176.864554 242.27201062 -183.53740399 243.35864024 -191.375 249.375 C-195.78558414 252.67687961 -200.27453538 255.78598553 -204.875 258.8125 C-209.44937245 261.82342822 -213.92126661 264.91082377 -218.3125 268.1875 C-226.37598185 274.05400962 -232.12880356 277.10113207 -242.375 275.8125 C-248.14144812 273.78356455 -251.69633644 270.18578296 -255.1875 265.25 C-257.32755801 259.05509523 -257.28639241 252.59731015 -255.25 246.375 C-250.54168413 239.94030164 -243.22410128 235.94675674 -236.625 231.6875 C-235.08428833 230.69182007 -235.08428833 230.69182007 -233.51245117 229.67602539 C-231.43184837 228.33568836 -229.34943044 226.99816443 -227.26513672 225.66357422 C-225.5060466 224.53691251 -223.749234 223.40667064 -221.99658203 222.27001953 C-208.96424577 213.8334992 -195.1745614 207.02994117 -181.22729492 200.26367188 C-178.35071903 198.84762785 -178.35071903 198.84762785 -175.6262207 197.12695312 C-173.375 195.8125 -173.375 195.8125 -171.375 195.8125 C-171.7359375 194.90113281 -172.096875 193.98976563 -172.46875 193.05078125 C-176.89279023 181.02893279 -178.27613642 168.10387462 -175.6862793 155.4465332 C-175.31073834 151.06227658 -176.2338096 148.90079805 -178.12109375 144.953125 C-178.71688191 143.65889331 -179.31258223 142.36462118 -179.90820312 141.0703125 C-180.85482226 139.06904281 -181.80830291 137.07124885 -182.76586914 135.07519531 C-186.54353171 127.13689944 -189.99020522 119.84568477 -188.375 110.8125 C-186.21662421 106.33586873 -183.92529447 103.82309523 -179.375 101.8125 C-174.30129237 100.59105187 -170.11955006 100.59912767 -165.375 102.8125 C-161.62797872 105.65527166 -158.23769339 108.92244259 -154.8671875 112.19726562 C-152.75627864 114.08668314 -150.93209875 115.58777223 -148.375 116.8125 C-145.87148722 116.64193473 -144.14396982 115.97395918 -141.87336731 114.91920471 C-133.20184205 111.07796894 -124.79898048 110.38397302 -115.41796875 110.484375 C-114.18142548 110.48588562 -112.9448822 110.48739624 -111.67086792 110.48895264 C-108.32828611 110.49670219 -104.98637062 110.51814481 -101.64393997 110.54660034 C-98.8403159 110.5680166 -96.03669662 110.57790101 -93.2330122 110.58789062 C-72.06895109 110.66531347 -50.90950103 111.00312239 -29.75024414 111.45385742 C-12.95505815 111.8100729 3.82626035 111.94062932 20.625 111.8125 C20.95330811 110.98830566 21.28161621 110.16411133 21.61987305 109.31494141 C22.05855713 108.23390137 22.49724121 107.15286133 22.94921875 106.0390625 C23.38065186 104.96736816 23.81208496 103.89567383 24.2565918 102.79150391 C25.93029256 99.14788273 27.9282386 96.74041237 30.625 93.8125 C30.625 93.1525 30.625 92.4925 30.625 91.8125 C29.74054199 91.36036133 28.85608398 90.90822266 27.94482422 90.44238281 C-2.83436454 74.69714324 -2.83436454 74.69714324 -16.85180664 66.93408203 C-21.12147313 64.57192953 -25.40665182 62.26791184 -29.76171875 60.06640625 C-30.6326416 59.62288818 -31.50356445 59.17937012 -32.40087891 58.72241211 C-34.0288244 57.89778486 -35.66223583 57.08381155 -37.30224609 56.28344727 C-43.12899883 53.32096542 -46.65211934 50.22160428 -49.66015625 44.26953125 C-51.16215676 39.10691747 -51.45268078 33.55526696 -49.46484375 28.49609375 C-46.84745564 24.06084123 -43.73199297 20.6075521 -39.375 17.8125 C-37.67302888 17.54007673 -35.9632768 17.31368687 -34.25 17.125 C-31.63546107 16.82734612 -31.63546107 16.82734612 -29.375 15.8125 C-27.95443926 13.39310748 -27.24452541 11.04439979 -26.43359375 8.36328125 C-24.6734367 4.12201722 -21.29499775 1.99385398 -17.375 -0.1875 C-11.7337252 -2.06792493 -5.59316369 -1.967965 0 0 Z " fill="#E1E3E5" transform="translate(336.375,89.1875)"/>
<path d="M0 0 C5.00729818 3.45742017 8.85734969 8.11599422 12.75 12.75 C13.462771 13.59534302 13.462771 13.59534302 14.18994141 14.45776367 C18.01141771 19.0189821 21.70236767 23.67426506 25.35791016 28.36889648 C28.88904585 32.89834091 32.49241317 37.36411811 36.125 41.8125 C40.70038589 47.41662302 45.20469061 53.06877457 49.64770508 58.77832031 C53.57065102 63.79818313 57.67152978 68.6535642 61.82421875 73.484375 C63.625 75.8125 63.625 75.8125 63.625 77.8125 C62.81417969 77.95945312 62.00335938 78.10640625 61.16796875 78.2578125 C51.72676471 80.17023334 43.45447617 83.16881185 36.25 89.75 C33.625 91.8125 33.625 91.8125 31.36694336 91.63989258 C28.05550414 90.64065231 25.19947343 89.23283701 22.12890625 87.63671875 C21.50751266 87.31553574 20.88611908 86.99435272 20.24589539 86.66343689 C18.22302903 85.61536037 16.2051892 84.55800427 14.1875 83.5 C12.78302724 82.7690809 11.37840355 82.03845172 9.97363281 81.30810547 C1.00934147 76.63637152 -7.90577835 71.87778518 -16.75146484 66.98461914 C-21.05718118 64.6045852 -25.37861297 62.28213733 -29.76953125 60.0625 C-31.07422363 59.39806885 -31.07422363 59.39806885 -32.40527344 58.72021484 C-34.03158816 57.89639518 -35.66338132 57.08325433 -37.30175781 56.28369141 C-43.12872403 53.32111191 -46.65200196 50.22183655 -49.66015625 44.26953125 C-51.16215676 39.10691747 -51.45268078 33.55526696 -49.46484375 28.49609375 C-46.84745564 24.06084123 -43.73199297 20.6075521 -39.375 17.8125 C-37.67302888 17.54007673 -35.9632768 17.31368687 -34.25 17.125 C-31.63546107 16.82734612 -31.63546107 16.82734612 -29.375 15.8125 C-27.95443926 13.39310748 -27.24452541 11.04439979 -26.43359375 8.36328125 C-24.6734367 4.12201722 -21.29499775 1.99385398 -17.375 -0.1875 C-11.7337252 -2.06792493 -5.59316369 -1.967965 0 0 Z " fill="#C6C6C6" transform="translate(336.375,89.1875)"/>
<path d="M0 0 C5.00729818 3.45742017 8.85734969 8.11599422 12.75 12.75 C13.462771 13.59534302 13.462771 13.59534302 14.18994141 14.45776367 C18.01141771 19.0189821 21.70236767 23.67426506 25.35791016 28.36889648 C28.88904585 32.89834091 32.49241317 37.36411811 36.125 41.8125 C40.70038589 47.41662302 45.20469061 53.06877457 49.64770508 58.77832031 C53.57065102 63.79818313 57.67152978 68.6535642 61.82421875 73.484375 C63.625 75.8125 63.625 75.8125 63.625 77.8125 C59.12077759 79.7018091 54.55980757 81.38315906 49.625 80.8125 C44.71714665 78.50481679 40.972133 74.3191679 37.24609375 70.47265625 C34.90560959 68.07577488 32.43049712 65.86303151 29.9375 63.625 C29.05578125 62.81546875 28.1740625 62.0059375 27.265625 61.171875 C24.63371196 58.82028406 21.93560491 56.58918738 19.1875 54.375 C15.19275746 51.15306683 11.37947891 47.80592389 7.625 44.3125 C2.99604516 40.00581889 -1.78112475 35.96069012 -6.72265625 32.01171875 C-9.41325253 29.78078251 -11.91214376 27.41504427 -14.4375 25 C-18.98305099 20.82655671 -23.50219576 18.59933193 -29.375 16.8125 C-27.34411666 9.75056473 -25.41968562 4.38340706 -18.8125 0.5 C-12.72545707 -2.29890198 -6.25290769 -2.20009715 0 0 Z " fill="#B2B2B2" transform="translate(336.375,89.1875)"/>
<path d="M0 0 C35.97 0 71.94 0 109 0 C109 3.63 109 7.26 109 11 C107.44825554 12.55174446 105.98412024 12.12594875 103.82434082 12.12698364 C102.47397484 12.13121338 102.47397484 12.13121338 101.09632874 12.13552856 C100.10096603 12.13350433 99.10560333 12.1314801 98.08007812 12.12939453 C96.51682045 12.13202301 96.51682045 12.13202301 94.92198181 12.13470459 C91.45838787 12.13912538 87.99484451 12.13618431 84.53125 12.1328125 C82.1361083 12.13348547 79.74096666 12.13445544 77.3458252 12.13571167 C72.31859692 12.13718895 67.29138638 12.13503311 62.26416016 12.13037109 C55.80393309 12.1246738 49.34374757 12.12795264 42.88352203 12.13394356 C37.93548263 12.13754835 32.98745315 12.13641096 28.03941345 12.13381577 C25.65665177 12.13314627 23.27388919 12.1339757 20.89112854 12.13629532 C17.56736851 12.13882051 14.24367679 12.13498313 10.91992188 12.12939453 C9.92455917 12.13141876 8.92919647 12.13344299 7.90367126 12.13552856 C7.00342728 12.13270874 6.10318329 12.12988892 5.17565918 12.12698364 C4.388825 12.12660662 3.60199081 12.12622959 2.79131317 12.12584114 C1 12 1 12 0 11 C0 7.37 0 3.74 0 0 Z " fill="#3EA1B8" transform="translate(150,410)"/>
<path d="M0 0 C35.64 0 71.28 0 108 0 C108 3.96 108 7.92 108 12 C72.36 12 36.72 12 0 12 C0 8.04 0 4.08 0 0 Z " fill="#167BA0" transform="translate(236,371)"/>
<path d="M0 0 C35.64 0 71.28 0 108 0 C108 3.96 108 7.92 108 12 C72.36 12 36.72 12 0 12 C0 8.04 0 4.08 0 0 Z " fill="#40A2B5" transform="translate(118,143)"/>
<path d="M0 0 C35.64 0 71.28 0 108 0 C108 3.96 108 7.92 108 12 C72.36 12 36.72 12 0 12 C0 8.04 0 4.08 0 0 Z " fill="#167BA0" transform="translate(70,104)"/>
<path d="M0 0 C0.77021484 0.63357422 1.54042969 1.26714844 2.33398438 1.91992188 C6.46104225 5.40247027 6.46104225 5.40247027 7.9375 7.0625 C7.9375 8.0525 7.9375 9.0425 7.9375 10.0625 C6.25 11.5703125 6.25 11.5703125 3.9375 13.1875 C-6.52963191 21.09927576 -11.67138641 30.37697454 -17.0625 42.0625 C-17.7225 42.0625 -18.3825 42.0625 -19.0625 42.0625 C-20.94061694 38.00310853 -22.79049609 33.93228143 -24.61669922 29.84936523 C-25.23986641 28.46613996 -25.87024282 27.08613663 -26.50830078 25.7097168 C-30.22481822 17.67865517 -33.68715749 10.13577341 -32.0625 1.0625 C-29.48113671 -4.29143868 -26.32608139 -6.7589845 -20.8125 -8.75 C-12.04772803 -9.34759809 -6.40632807 -5.55289962 0 0 Z " fill="#C6C6C6" transform="translate(180.0625,198.9375)"/>
<path d="M0 0 C6.27 0 12.54 0 19 0 C19 3.96 19 7.92 19 12 C12.73 12 6.46 12 0 12 C0 8.04 0 4.08 0 0 Z " fill="#177B9F" transform="translate(205,371)"/>
<path d="M0 0 C6.27 0 12.54 0 19 0 C19.09765625 8.49609375 19.09765625 8.49609375 19 11 C17.1144747 12.8855253 14.42231169 12.13246689 11.91796875 12.13671875 C11.12003906 12.13285156 10.32210937 12.12898437 9.5 12.125 C8.70207031 12.12886719 7.90414062 12.13273438 7.08203125 12.13671875 C1.12660767 12.12660767 1.12660767 12.12660767 0 11 C-0.14310287 7.3308423 -0.04221662 3.67284559 0 0 Z " fill="#40A2B5" transform="translate(87,143)"/>
<path d="M0 0 C5.94 0 11.88 0 18 0 C18 3.96 18 7.92 18 12 C12.06 12 6.12 12 0 12 C0 8.04 0 4.08 0 0 Z " fill="#3DA1B8" transform="translate(120,410)"/>
<path d="M0 0 C5.94 0 11.88 0 18 0 C18 3.96 18 7.92 18 12 C12.06 12 6.12 12 0 12 C0 8.04 0 4.08 0 0 Z " fill="#3DA1B8" transform="translate(89,410)"/>
<path d="M0 0 C5.94 0 11.88 0 18 0 C18 3.96 18 7.92 18 12 C12.06 12 6.12 12 0 12 C0 8.04 0 4.08 0 0 Z " fill="#167BA0" transform="translate(175,371)"/>
<path d="M0 0 C5.94 0 11.88 0 18 0 C18 3.96 18 7.92 18 12 C12.06 12 6.12 12 0 12 C0 8.04 0 4.08 0 0 Z " fill="#40A2B6" transform="translate(57,143)"/>
<path d="M0 0 C5.94 0 11.88 0 18 0 C18 3.96 18 7.92 18 12 C12.06 12 6.12 12 0 12 C0 8.04 0 4.08 0 0 Z " fill="#167BA0" transform="translate(39,104)"/>
</svg>
